<svg width="24" height="24" viewBox="0 0 24 24" fill="none" xmlns="http://www.w3.org/2000/svg">
<path d="M4.66743 2.28664C7.26395 0.972353 11.3195 0.18794 14.9135 2.34406C18.5418 4.52098 21.3793 9.49779 21.9202 18.962L22 20.3632L20.7395 19.9187C19.4793 19.4752 17.5845 19.1411 15.9766 19.4973C15.1861 19.6725 14.5067 20.0044 13.9933 20.5281C13.5613 20.9688 13.2039 21.5883 13.0127 22.4758C12.9832 22.6584 12.9539 22.834 12.9223 23L11.1522 22.6786C11.1778 22.4898 11.2095 22.3065 11.2461 22.1285L11.2566 22.0729C11.4662 20.7353 11.5691 19.0952 11.3364 17.8978C11.2013 17.2027 10.9875 16.8394 10.7952 16.6874C10.6673 16.5862 10.3869 16.4505 9.70405 16.729L9.70317 16.7281C9.6905 16.7327 9.67819 16.7384 9.66545 16.7429C8.14894 17.2791 7.1985 17.8765 6.63225 18.3674C6.03429 18.8858 5.93348 19.2216 5.93667 19.2046L5.67352 20.5976L2.12368 18.0877L2.16403 17.5357C2.3098 15.5258 3.22805 12.8383 4.2499 10.3821C5.13626 8.25163 6.14092 6.20235 6.90768 4.75483C6.85939 4.72395 6.80606 4.69153 6.74716 4.65852C6.35799 4.44041 5.76511 4.20744 4.92794 4.0806L2 3.63697L4.66743 2.28664ZM14.0267 3.99354C12.0242 2.7921 9.78752 2.69932 7.8436 3.13685C8.28069 3.41746 8.61034 3.73035 8.79795 4.02873L9.10671 4.51959L8.82602 5.0299C8.06412 6.41519 6.89922 8.72954 5.89457 11.1443C4.9814 13.3393 4.24443 15.5188 4.01482 17.1421L4.7569 17.6663C4.95728 17.4095 5.2035 17.1514 5.49195 16.9013C6.26195 16.2338 7.41851 15.5371 9.0953 14.9443C10.7787 14.3491 11.7588 13.0196 12.1846 11.6269C12.3987 10.9266 12.4664 10.2276 12.4153 9.62731C12.3936 9.37181 12.3505 9.14618 12.2952 8.95122C11.6254 9.31331 10.7303 9.93142 10.083 10.7896L8.67778 9.60786C9.8832 8.00978 11.6503 7.10212 12.4215 6.82941L13.0179 6.61918L13.41 7.13782C13.8848 7.76726 14.1321 8.6038 14.2047 9.45783C14.2784 10.3239 14.179 11.2789 13.8942 12.2103C13.5553 13.3186 12.9417 14.4153 12.0197 15.2972C12.6366 15.8691 12.9409 16.7193 13.096 17.5172C13.1701 17.8985 13.2155 18.3039 13.2407 18.7203C13.9562 18.16 14.7781 17.8241 15.6073 17.6404C17.1045 17.3086 18.7143 17.4534 20.0317 17.7543C19.3334 9.50345 16.7545 5.63042 14.0267 3.99354Z" fill="black"/>
</svg>
