<svg width="396" height="75" viewBox="0 0 396 75" fill="none" xmlns="http://www.w3.org/2000/svg">
<path d="M62.7321 65.4741L65.1612 69.656C59.3459 73.043 52.586 75.0002 45.3789 75.0002C38.1748 75.0002 31.4129 73.0511 25.5925 69.6542L30.4578 61.2939C34.8475 63.8557 39.9369 65.324 45.3789 65.324C50.8178 65.324 55.909 63.8515 60.3035 61.2921L62.7321 65.4741ZM16.639 22.5424H9.66234V47.8426H16.639V57.5188H0V12.8662H16.639V22.5424ZM45.3789 12.8662C57.6595 12.8665 67.5632 22.8908 67.5633 35.1922C67.5632 47.4937 57.6595 57.5186 45.3789 57.5188C33.0981 57.5188 23.194 47.4939 23.194 35.1922C23.1941 22.8906 33.0981 12.8662 45.3789 12.8662ZM90.7502 57.5188H74.1112V47.8426H81.0878V22.5424H74.1112V12.8662H90.7502V57.5188ZM45.3789 22.5424C38.4917 22.5424 32.8564 28.1772 32.8563 35.1922C32.8564 42.2073 38.4916 47.8426 45.3789 47.8426C52.266 47.8424 57.9009 42.2071 57.9009 35.1922C57.9008 28.1773 52.266 22.5427 45.3789 22.5424Z" fill="#EE4C01"/>
<path d="M67.568 4.87944C67.568 2.18471 65.4001 0.000132047 62.7262 0C60.0521 0 57.8838 2.18463 57.8838 4.87944C57.8838 7.57422 60.0521 9.75888 62.7262 9.75888C65.4001 9.75875 67.5679 7.57414 67.568 4.87944Z" fill="#040136"/>
<path d="M139.525 18.75C141.385 18.75 143.086 18.9427 144.628 19.3281C146.186 19.7135 147.594 20.2495 148.851 20.9365C150.107 21.6068 151.154 22.3442 151.992 23.1484C152.847 23.9527 153.274 24.3545 153.274 24.3545L147.945 30.1104C147.935 30.101 147.642 29.8247 147.065 29.2812C146.496 28.7116 145.843 28.2253 145.105 27.8232C144.385 27.4044 143.564 27.086 142.643 26.8682C141.721 26.6336 140.724 26.5166 139.651 26.5166C136.602 26.5166 134.046 27.5301 131.985 29.5576C129.941 31.5851 128.919 34.2912 128.919 37.6758C128.919 40.9767 129.941 43.6578 131.985 45.7188C134.046 47.763 136.644 48.7852 139.777 48.7852C142.693 48.7851 144.989 48.0726 146.664 46.6484C148.313 45.2606 149.283 43.4508 149.58 41.2197H139.174V35.0117H157.472V38.3291C157.472 43.8083 155.804 48.1655 152.47 51.3994C149.152 54.6332 144.812 56.25 139.45 56.25C134.139 56.2165 129.69 54.4233 126.104 50.8711C122.535 47.3021 120.751 42.8452 120.751 37.5C120.751 32.0543 122.535 27.5725 126.104 24.0537C129.69 20.5183 134.164 18.7501 139.525 18.75ZM265.639 18.75C270.85 18.75 275.273 20.5182 278.909 24.0537C282.545 27.5724 284.363 32.0458 284.363 37.4746C284.363 42.8868 282.554 47.3696 278.935 50.9219C275.315 54.4741 270.883 56.25 265.639 56.25C260.377 56.25 255.937 54.4991 252.317 50.9971C248.715 47.4783 246.914 42.9706 246.914 37.4746C246.914 31.9787 248.724 27.4881 252.343 24.0029C255.962 20.501 260.394 18.75 265.639 18.75ZM352.054 18.75C353.813 18.75 355.48 18.9591 357.055 19.3779C358.63 19.7968 360.071 20.3837 361.378 21.1377C362.685 21.8917 363.758 22.6713 364.596 23.4756C365.433 24.2796 365.853 24.6816 365.853 24.6816L360.348 30.6133C360.345 30.6107 360.085 30.3345 359.568 29.7842C359.049 29.2312 358.421 28.7278 357.684 28.2754C356.946 27.823 356.117 27.4634 355.195 27.1953C354.29 26.9272 353.285 26.793 352.179 26.793C349.213 26.7931 346.733 27.7817 344.739 29.7588C342.745 31.7192 341.748 34.2911 341.748 37.4746C341.748 40.6247 342.729 43.1974 344.689 45.1914C346.65 47.1851 349.13 48.1816 352.129 48.1816C353.285 48.1816 354.357 48.0397 355.346 47.7549C356.334 47.4533 357.239 47.0342 358.061 46.498C358.898 45.962 359.56 45.4008 360.046 44.8145C360.539 44.239 360.791 43.9454 360.8 43.9346L366.53 49.6143C366.527 49.6176 366.1 50.0875 365.249 51.0225C364.395 51.9607 363.28 52.8402 361.906 53.6611C360.532 54.4654 359.015 55.0935 357.356 55.5459C355.698 56.015 353.922 56.25 352.028 56.25C346.549 56.25 342.041 54.4904 338.506 50.9717C334.987 47.4362 333.229 42.9456 333.229 37.5C333.229 32.004 335.013 27.5049 338.582 24.0029C342.151 20.5011 346.642 18.75 352.054 18.75ZM381.942 18.75C384.02 18.75 385.847 19.0185 387.422 19.5547C389.014 20.0909 390.388 20.8868 391.544 21.9424C392.717 22.9811 393.58 24.0371 394.133 25.1094C394.702 26.1814 394.987 26.7178 394.987 26.7178L388.15 29.4316C388.144 29.4214 387.968 29.1364 387.623 28.5771C387.288 27.9907 386.835 27.446 386.266 26.9434C385.713 26.424 385.067 26.0384 384.33 25.7871C383.593 25.5191 382.755 25.3857 381.816 25.3857C380.426 25.3858 379.286 25.6869 378.398 26.29C377.527 26.8932 377.092 27.7143 377.092 28.7529C377.092 29.7079 377.544 30.5212 378.448 31.1914C379.37 31.8616 381.523 32.6997 384.908 33.7051C388.745 34.8277 391.51 36.3353 393.202 38.2285C394.911 40.1052 395.767 42.3845 395.767 45.0654C395.767 48.4668 394.485 51.1815 391.921 53.209C389.357 55.2364 386.039 56.25 381.968 56.25C379.605 56.25 377.527 55.923 375.734 55.2695C373.941 54.616 372.433 53.6946 371.21 52.5049C369.987 51.3152 369.065 50.0331 368.445 48.6592C367.849 47.3011 367.548 46.6141 367.541 46.5986L374.604 43.8594C374.611 43.8757 374.804 44.2942 375.182 45.1152C375.567 45.953 376.086 46.7077 376.739 47.3779C377.409 48.0481 378.206 48.5756 379.127 48.9609C380.049 49.3296 381.088 49.5137 382.244 49.5137C383.853 49.5136 385.142 49.1367 386.114 48.3828C387.086 47.6288 387.572 46.6066 387.572 45.3164C387.572 44.06 386.952 43.0547 385.713 42.3008C384.49 41.53 382.403 40.7006 379.454 39.8125C375.785 38.6898 373.112 37.2649 371.437 35.5391C369.778 33.8132 368.948 31.6767 368.948 29.1299C368.948 26.114 370.146 23.634 372.542 21.6904C374.938 19.73 378.072 18.75 381.942 18.75ZM191.828 55.4961H182.855L180.413 48.5342H167.649L165.187 55.4961H156.565L170.414 19.5049H178.005L191.828 55.4961ZM203.245 47.7803H218.577V55.4961H194.851V19.5049H203.245V47.7803ZM230.772 47.7803H246.104V55.4961H222.378V19.5049H230.772V47.7803ZM303.4 19.5049C307.271 19.505 310.387 20.6355 312.75 22.8975C315.113 25.1427 316.294 28.2257 316.294 32.1465C316.294 36.0003 315.07 39.0247 312.624 41.2197C310.194 43.398 307.103 44.4873 303.35 44.4873H297.217V55.4961H288.822V19.5049H303.4ZM328.747 55.4961H320.277V19.5049H328.747V55.4961ZM265.639 26.793C262.673 26.793 260.201 27.7979 258.224 29.8086C256.263 31.8193 255.283 34.3749 255.283 37.4746C255.283 40.5912 256.263 43.1639 258.224 45.1914C260.184 47.2021 262.648 48.207 265.613 48.207C268.596 48.207 271.068 47.1935 273.028 45.166C274.989 43.1386 275.969 40.5744 275.969 37.4746C275.969 34.3581 274.98 31.8025 273.003 29.8086C271.043 27.798 268.588 26.793 265.639 26.793ZM173.028 33.3281L169.694 42.7529H178.386L175.089 33.3535L174.109 30.1611H174.009L173.028 33.3281ZM297.217 37.5254H302.596C304.221 37.5254 305.528 37.065 306.517 36.1436C307.505 35.2052 308 33.9059 308 32.2471C308 30.5884 307.497 29.2812 306.491 28.3262C305.486 27.3713 304.179 26.8936 302.57 26.8936H297.217V37.5254Z" fill="#040136"/>
</svg>
