<svg width="91" height="75" viewBox="0 0 91 75" fill="none" xmlns="http://www.w3.org/2000/svg">
<path d="M62.7321 65.4741L65.1612 69.656C59.3459 73.043 52.586 75.0002 45.3789 75.0002C38.1748 75.0002 31.4129 73.0511 25.5925 69.6542L30.4578 61.2939C34.8475 63.8557 39.9369 65.324 45.3789 65.324C50.8178 65.324 55.909 63.8515 60.3035 61.2921L62.7321 65.4741ZM16.639 22.5424H9.66234V47.8426H16.639V57.5188H0V12.8662H16.639V22.5424ZM45.3789 12.8662C57.6595 12.8665 67.5632 22.8908 67.5633 35.1922C67.5632 47.4937 57.6595 57.5186 45.3789 57.5188C33.0981 57.5188 23.194 47.4939 23.194 35.1922C23.1941 22.8906 33.0981 12.8662 45.3789 12.8662ZM90.7502 57.5188H74.1112V47.8426H81.0878V22.5424H74.1112V12.8662H90.7502V57.5188ZM45.3789 22.5424C38.4917 22.5424 32.8564 28.1772 32.8563 35.1922C32.8564 42.2073 38.4916 47.8426 45.3789 47.8426C52.266 47.8424 57.9009 42.2071 57.9009 35.1922C57.9008 28.1773 52.266 22.5427 45.3789 22.5424Z" fill="#EE4C01"/>
<path d="M67.568 4.87944C67.568 2.18471 65.4001 0.000132047 62.7262 0C60.0521 0 57.8838 2.18463 57.8838 4.87944C57.8838 7.57422 60.0521 9.75888 62.7262 9.75888C65.4001 9.75875 67.5679 7.57414 67.568 4.87944Z" fill="#040136"/>
</svg>
